<svg xmlns="http://www.w3.org/2000/svg" viewBox="0 0 59 59"><defs><style>.cls-1{fill:#74bf8a;}.cls-2{fill:#fff;}</style></defs><g id="Layer_2" data-name="Layer 2"><g id="Layer_3" data-name="Layer 3"><circle class="cls-1" cx="29.5" cy="29.5" r="29.5"/><path class="cls-2" d="M37.62,42.5a.53.53,0,0,1-.24-.06L29.5,38.3l-7.88,4.14a.5.5,0,0,1-.54,0,.51.51,0,0,1-.2-.49l1.51-8.78L16,26.91a.5.5,0,0,1,.28-.86l8.81-1.28,3.94-8a.53.53,0,0,1,.92,0l3.94,8,8.81,1.28a.5.5,0,0,1,.28.86l-6.38,6.22,1.51,8.78a.51.51,0,0,1-.2.49A.49.49,0,0,1,37.62,42.5ZM29.5,37.22a.53.53,0,0,1,.24.06l7.2,3.78-1.37-8a.49.49,0,0,1,.14-.45l5.83-5.68-8-1.18a.5.5,0,0,1-.39-.27l-3.6-7.3-3.6,7.3a.5.5,0,0,1-.39.27l-8,1.18,5.83,5.68a.49.49,0,0,1,.14.45l-1.37,8,7.2-3.78A.53.53,0,0,1,29.5,37.22Z"/></g></g></svg>