<svg xmlns="http://www.w3.org/2000/svg" viewBox="0 0 43.26 43.26"><defs><style>.cls-1{fill:#fff;}</style></defs><g id="Layer_2" data-name="Layer 2"><g id="Layer_3" data-name="Layer 3"><path class="cls-1" d="M21.63,0A21.63,21.63,0,1,0,43.26,21.63,21.65,21.65,0,0,0,21.63,0ZM41.86,20.69c-2.7.17-10.37,0-15.68-6.15S21.76,3.31,22.33,1.39A20.27,20.27,0,0,1,41.86,20.69ZM1.38,22.08c1.51-.53,7-1.86,13.53,3.73S21.22,39.61,21,41.87A20.26,20.26,0,0,1,1.38,22.08Zm21,19.79c.24-2.67.35-11.13-6.6-17.09C9.3,19.22,3.64,20,1.4,20.65A20.27,20.27,0,0,1,20.93,1.39c-.62,2.44-1.07,7.87,4.22,14a19.9,19.9,0,0,0,15.3,6.68c.56,0,1,0,1.43-.05A20.28,20.28,0,0,1,22.39,41.87Z"/></g></g></svg>