<svg xmlns="http://www.w3.org/2000/svg" viewBox="0 0 59 59"><defs><style>.cls-1{fill:#74bf8a;}.cls-2{fill:#fff;}</style></defs><g id="Layer_2" data-name="Layer 2"><g id="Layer_4" data-name="Layer 4"><circle class="cls-1" cx="29.5" cy="29.5" r="29.5"/><path class="cls-2" d="M40.7,11.5C37.05,8.81,31.37,10.32,28,14.86a12,12,0,0,0-2.34,6.25c0,.21,0,.41,0,.62,0,0,0,0,0,.06a41.22,41.22,0,0,1-2,11.4l-8.5,11.36a.72.72,0,0,0,.14,1,.69.69,0,0,0,.43.14.72.72,0,0,0,.57-.28l8.36-11.17a59.76,59.76,0,0,1,10.95-5.42.33.33,0,0,0,.1-.06,11.71,11.71,0,0,0,5.55-4.17,11.53,11.53,0,0,0,2.34-7.2A7.46,7.46,0,0,0,40.7,11.5Zm1.7,9.37L41.17,20l1.72-2.39A9.94,9.94,0,0,1,42.4,20.87Zm-7.85-9.71L37.08,13l-1.83,2.56-2.54-1.87Zm-2.12,2.35-1.16-.86A10.36,10.36,0,0,1,34,11.29Zm-1,8,1.84-2.56,2.53,1.87L34,23.37Zm2.33,2.16-1.84,2.56L29.4,24.35l1.83-2.56Zm-.28-5,1.84-2.56L37.86,18,36,20.52Zm2-2.85,1.84-2.56,2.53,1.87-1.83,2.56Zm-.49.08L33.2,18.44l-2.54-1.86L32.51,14Zm-2,2.85-1.83,2.56-2.54-1.87,1.83-2.55Zm-2,2.85-1.84,2.56-2.53-1.87,1.83-2.56ZM28.9,24.43l-1.18,1.64a7.09,7.09,0,0,1-1.27-3.45Zm.29.21,2.53,1.87-1.2,1.67a6.38,6.38,0,0,1-1.5-.8,6.08,6.08,0,0,1-1.07-1ZM32,26.72l2.3,1.7a7.2,7.2,0,0,1-3.43-.13Zm3.28,1.44L36.87,26,38,26.8A10.25,10.25,0,0,1,35.29,28.16Zm-.54.14-2.53-1.87,1.83-2.56,2.54,1.87Zm-.49-4.72L36.1,21l2.54,1.86-1.85,2.57Zm2.05-2.85,1.84-2.56L40.68,20l-1.83,2.55Zm2-2.85,1.84-2.56,2.53,1.87-1.83,2.56Zm4.49-1L40.4,15l1.18-1.63A7,7,0,0,1,42.84,16.84Zm-1.49-3.75-1.24,1.73L37.58,13l1.2-1.66a5.9,5.9,0,0,1,1.49.78A5.82,5.82,0,0,1,41.35,13.09Zm-2.92-1.93-1.14,1.58L35,11a8.7,8.7,0,0,1,1.5-.16A6.6,6.6,0,0,1,38.43,11.16ZM31,12.88l1.24.92-1.84,2.56-1.66-1.21A11.85,11.85,0,0,1,31,12.88ZM28.5,15.43l1.67,1.22-1.83,2.56-1.32-1A12.2,12.2,0,0,1,28.5,15.43Zm-1.6,3.16,1.23.91L26.4,21.9c0-.25,0-.5,0-.75A10.52,10.52,0,0,1,26.9,18.59Zm-.7,6.09a6.73,6.73,0,0,0,6.38,4.59A64.23,64.23,0,0,0,25.33,33a.71.71,0,0,0-.28-.46.65.65,0,0,0-.38-.13A41.35,41.35,0,0,0,26.2,24.68Zm12.12,1.89-1.24-.91,1.85-2.56,1.65,1.21A11.52,11.52,0,0,1,38.32,26.57ZM40.79,24,39.13,22.8,41,20.25l1.3,1A11.6,11.6,0,0,1,40.79,24Z"/></g></g></svg>