<svg xmlns="http://www.w3.org/2000/svg" viewBox="0 0 59 59"><defs><style>.cls-1{fill:#74bf8a;}.cls-2{fill:#fff;}</style></defs><g id="Layer_2" data-name="Layer 2"><g id="Layer_3" data-name="Layer 3"><circle class="cls-1" cx="29.5" cy="29.5" r="29.5"/><path class="cls-2" d="M40.68,43.93H18.32a.51.51,0,0,1-.51-.51V15.58a.51.51,0,0,1,.51-.51H40.68a.51.51,0,0,1,.51.51V43.42A.51.51,0,0,1,40.68,43.93Zm-21.85-1H40.17V16.09H18.83Z"/><path class="cls-2" d="M35,37.43H23.89a.51.51,0,1,1,0-1H35a.51.51,0,1,1,0,1Z"/><path class="cls-2" d="M35,30.47H23.89a.51.51,0,0,1-.51-.51.51.51,0,0,1,.51-.51H35a.51.51,0,0,1,.51.51A.51.51,0,0,1,35,30.47Z"/><path class="cls-2" d="M27.6,23.51H23.89a.51.51,0,0,1,0-1H27.6a.51.51,0,0,1,0,1Z"/></g></g></svg>