<svg xmlns="http://www.w3.org/2000/svg" viewBox="0 0 59 59"><defs><style>.cls-1{fill:#74bf8a;}.cls-2{fill:#fff;}</style></defs><g id="Layer_2" data-name="Layer 2"><g id="Layer_4" data-name="Layer 4"><circle class="cls-1" cx="29.5" cy="29.5" r="29.5"/><path class="cls-2" d="M23,28.84a5.8,5.8,0,1,1,5.8-5.8A5.8,5.8,0,0,1,23,28.84Zm0-10.6a4.8,4.8,0,1,0,4.8,4.8A4.81,4.81,0,0,0,23,18.24Z"/><path class="cls-2" d="M38,26.94a4.85,4.85,0,1,1,4.85-4.85A4.85,4.85,0,0,1,38,26.94Zm0-8.7a3.85,3.85,0,1,0,3.85,3.85A3.85,3.85,0,0,0,38,18.24Z"/><path class="cls-2" d="M47.57,37.56H28.35v-.5a9.61,9.61,0,1,1,19.22,0Zm-18.21-1H46.55a8.61,8.61,0,0,0-17.19,0Z"/><path class="cls-1" d="M34.11,41.26H11.93a11.09,11.09,0,0,1,22.18,0Z"/><path class="cls-2" d="M34.61,41.76H11.43v-.5a11.59,11.59,0,0,1,23.18,0Zm-22.16-1H33.6a10.59,10.59,0,0,0-21.15,0Z"/></g></g></svg>