<svg xmlns="http://www.w3.org/2000/svg" viewBox="0 0 59 59"><defs><style>.cls-1{fill:#74bf8a;}.cls-2{fill:#fff;}</style></defs><g id="Layer_2" data-name="Layer 2"><g id="Layer_3" data-name="Layer 3"><circle class="cls-1" cx="29.5" cy="29.5" r="29.5"/><path class="cls-2" d="M14.57,38.63a.51.51,0,0,1-.36-.87L26,26a.53.53,0,0,1,.72,0L33,32.22,43.25,21.39H38.37a.51.51,0,0,1,0-1h6.06a.5.5,0,0,1,.47.31.51.51,0,0,1-.1.55L33.35,33.3a.48.48,0,0,1-.36.15.58.58,0,0,1-.37-.14l-6.26-6.26L14.93,38.48A.51.51,0,0,1,14.57,38.63Z"/><path class="cls-2" d="M44.43,27a.51.51,0,0,1-.51-.51V20.88a.51.51,0,0,1,1,0v5.63A.51.51,0,0,1,44.43,27Z"/></g></g></svg>