<svg xmlns="http://www.w3.org/2000/svg" viewBox="0 0 59 59"><defs><style>.cls-1{fill:#74bf8a;}.cls-2{fill:#fff;}</style></defs><g id="Layer_2" data-name="Layer 2"><g id="Layer_3" data-name="Layer 3"><circle class="cls-1" cx="29.5" cy="29.5" r="29.5"/><path class="cls-2" d="M24.79,43.22H14a.51.51,0,0,1-.51-.51V34.5A.5.5,0,0,1,14,34H24.79a.5.5,0,0,1,.51.5v8.21A.51.51,0,0,1,24.79,43.22Zm-10.27-1h9.76V35H14.52Z"/><path class="cls-2" d="M24.79,24.87H14a.51.51,0,0,1-.51-.51v-8.2a.51.51,0,0,1,.51-.51H24.79a.51.51,0,0,1,.51.51v8.2A.51.51,0,0,1,24.79,24.87Zm-10.27-1h9.76V16.67H14.52Z"/><path class="cls-2" d="M48.13,34H37.34a.51.51,0,0,1-.51-.51v-8.2a.51.51,0,0,1,.51-.51H48.13a.5.5,0,0,1,.5.51v8.2A.5.5,0,0,1,48.13,34ZM37.85,33h9.77V25.84H37.85Z"/><path class="cls-2" d="M30.78,39.11h-6a.51.51,0,1,1,0-1h5.48V20.77H24.79a.51.51,0,0,1,0-1h6a.51.51,0,0,1,.51.51V38.61A.5.5,0,0,1,30.78,39.11Z"/><path class="cls-2" d="M37.34,29.94H30.78a.51.51,0,1,1,0-1h6.56a.51.51,0,0,1,0,1Z"/></g></g></svg>